<?xml version="1.0" encoding="UTF-8" standalone="no"?>
<!DOCTYPE svg PUBLIC "-//W3C//DTD SVG 1.1//EN"
 "http://www.w3.org/Graphics/SVG/1.1/DTD/svg11.dtd">
<!-- Generated by graphviz version 2.43.20190912.0211 (20190912.0211)
 -->
<!-- Title: flowchart Pages: 1 -->
<svg width="591pt" height="909pt"
 viewBox="0.00 0.00 591.40 909.40" xmlns="http://www.w3.org/2000/svg" xmlns:xlink="http://www.w3.org/1999/xlink">
<g id="graph0" class="graph" transform="scale(1 1) rotate(0) translate(4 905.4)">
<title>flowchart</title>
<polygon fill="white" stroke="transparent" points="-4,4 -4,-905.4 587.4,-905.4 587.4,4 -4,4"/>
<!-- p1 -->
<g id="node1" class="node">
<title>p1</title>
<ellipse fill="black" stroke="black" cx="255.86" cy="-881" rx="3.6" ry="3.6"/>
<text text-anchor="middle" x="201.13" y="-888.8" font-family="Times-Roman" font-size="14.00">Channel.fromPath</text>
</g>
<!-- p2 -->
<g id="node2" class="node">
<title>p2</title>
<ellipse fill="none" stroke="black" cx="255.86" cy="-836.8" rx="3.5" ry="3.5"/>
<text text-anchor="middle" x="240.3" y="-844.5" font-family="Times-Roman" font-size="14.00">map</text>
</g>
<!-- p1&#45;&gt;p2 -->
<g id="edge1" class="edge">
<title>p1&#45;&gt;p2</title>
<path fill="none" stroke="black" d="M255.86,-877.23C255.86,-871.93 255.86,-860.03 255.86,-850.68"/>
<polygon fill="black" stroke="black" points="259.36,-850.63 255.86,-840.63 252.36,-850.63 259.36,-850.63"/>
</g>
<!-- p4 -->
<g id="node3" class="node">
<title>p4</title>
<ellipse fill="none" stroke="black" cx="303.86" cy="-762.4" rx="65.96" ry="18"/>
<text text-anchor="middle" x="303.86" y="-758.2" font-family="Times-Roman" font-size="14.00">assoc:prefilter</text>
</g>
<!-- p2&#45;&gt;p4 -->
<g id="edge2" class="edge">
<title>p2&#45;&gt;p4</title>
<path fill="none" stroke="black" d="M255.22,-833.25C253.78,-826.93 250.87,-810.16 256.99,-798.4 259.57,-793.45 263.2,-789 267.32,-785.08"/>
<polygon fill="black" stroke="black" points="269.67,-787.68 275.13,-778.59 265.2,-782.3 269.67,-787.68"/>
<text text-anchor="middle" x="298.29" y="-802.6" font-family="Times-Roman" font-size="14.00">for_saige_imp</text>
</g>
<!-- p5 -->
<g id="node5" class="node">
<title>p5</title>
<ellipse fill="none" stroke="black" cx="303.86" cy="-703.8" rx="3.5" ry="3.5"/>
<text text-anchor="middle" x="288.3" y="-711.5" font-family="Times-Roman" font-size="14.00">map</text>
</g>
<!-- p4&#45;&gt;p5 -->
<g id="edge4" class="edge">
<title>p4&#45;&gt;p5</title>
<path fill="none" stroke="black" d="M303.86,-744.11C303.86,-735.51 303.86,-725.3 303.86,-717.44"/>
<polygon fill="black" stroke="black" points="307.36,-717.37 303.86,-707.37 300.36,-717.37 307.36,-717.37"/>
</g>
<!-- p3 -->
<g id="node4" class="node">
<title>p3</title>
<ellipse fill="black" stroke="black" cx="351.86" cy="-836.8" rx="3.6" ry="3.6"/>
<text text-anchor="middle" x="297.13" y="-820.6" font-family="Times-Roman" font-size="14.00">Channel.fromPath</text>
</g>
<!-- p3&#45;&gt;p4 -->
<g id="edge3" class="edge">
<title>p3&#45;&gt;p4</title>
<path fill="none" stroke="black" d="M351.2,-832.9C349.65,-826.35 345.27,-810.11 337.86,-798.4 335.45,-794.59 332.57,-790.86 329.52,-787.33"/>
<polygon fill="black" stroke="black" points="332.07,-784.93 322.7,-779.98 326.94,-789.69 332.07,-784.93"/>
</g>
<!-- p6 -->
<g id="node6" class="node">
<title>p6</title>
<ellipse fill="none" stroke="black" cx="375.86" cy="-629.4" rx="78.17" ry="18"/>
<text text-anchor="middle" x="375.86" y="-625.2" font-family="Times-Roman" font-size="14.00">assoc:gen_r2_list</text>
</g>
<!-- p5&#45;&gt;p6 -->
<g id="edge5" class="edge">
<title>p5&#45;&gt;p6</title>
<path fill="none" stroke="black" d="M307.18,-702.27C315.82,-700.74 339.28,-695.51 352.86,-682.2 359.8,-675.39 364.81,-666.12 368.34,-657.31"/>
<polygon fill="black" stroke="black" points="371.71,-658.29 371.73,-647.7 365.11,-655.97 371.71,-658.29"/>
<text text-anchor="middle" x="422.16" y="-669.6" font-family="Times-Roman" font-size="14.00">ch_mapped_prefilter</text>
</g>
<!-- p10 -->
<g id="node11" class="node">
<title>p10</title>
<ellipse fill="none" stroke="black" cx="199.86" cy="-629.4" rx="80.46" ry="18"/>
<text text-anchor="middle" x="199.86" y="-625.2" font-family="Times-Roman" font-size="14.00">assoc:make_plink</text>
</g>
<!-- p5&#45;&gt;p10 -->
<g id="edge10" class="edge">
<title>p5&#45;&gt;p10</title>
<path fill="none" stroke="black" d="M300.49,-702.66C289.54,-702.06 254.35,-698.87 232.24,-682.2 223.47,-675.59 216.5,-665.86 211.31,-656.61"/>
<polygon fill="black" stroke="black" points="214.39,-654.95 206.71,-647.65 208.16,-658.15 214.39,-654.95"/>
<text text-anchor="middle" x="291.16" y="-669.6" font-family="Times-Roman" font-size="14.00">ch_mapped_prefilter</text>
</g>
<!-- p7 -->
<g id="node7" class="node">
<title>p7</title>
<ellipse fill="none" stroke="black" cx="375.86" cy="-570.9" rx="3.5" ry="3.5"/>
<text text-anchor="middle" x="353.7" y="-578.6" font-family="Times-Roman" font-size="14.00">collect</text>
</g>
<!-- p6&#45;&gt;p7 -->
<g id="edge6" class="edge">
<title>p6&#45;&gt;p7</title>
<path fill="none" stroke="black" d="M375.86,-611.14C375.86,-602.56 375.86,-592.37 375.86,-584.52"/>
<polygon fill="black" stroke="black" points="379.36,-584.46 375.86,-574.46 372.36,-584.46 379.36,-584.46"/>
</g>
<!-- p8 -->
<g id="node8" class="node">
<title>p8</title>
<ellipse fill="none" stroke="black" cx="375.86" cy="-512.4" rx="71.77" ry="18"/>
<text text-anchor="middle" x="375.86" y="-508.2" font-family="Times-Roman" font-size="14.00">assoc:merge_r2</text>
</g>
<!-- p7&#45;&gt;p8 -->
<g id="edge7" class="edge">
<title>p7&#45;&gt;p8</title>
<path fill="none" stroke="black" d="M375.86,-567.17C375.86,-562.23 375.86,-551.3 375.86,-540.57"/>
<polygon fill="black" stroke="black" points="379.36,-540.55 375.86,-530.55 372.36,-540.55 379.36,-540.55"/>
</g>
<!-- p13 -->
<g id="node9" class="node">
<title>p13</title>
<ellipse fill="none" stroke="black" cx="199.86" cy="-439.4" rx="117.46" ry="18"/>
<text text-anchor="middle" x="199.86" y="-435.2" font-family="Times-Roman" font-size="14.00">assoc:prune_python_helper</text>
</g>
<!-- p8&#45;&gt;p13 -->
<g id="edge8" class="edge">
<title>p8&#45;&gt;p13</title>
<path fill="none" stroke="black" d="M339.39,-496.69C313.25,-486.14 277.73,-471.82 249.08,-460.26"/>
<polygon fill="black" stroke="black" points="250.23,-456.95 239.65,-456.45 247.61,-463.44 250.23,-456.95"/>
</g>
<!-- p14 -->
<g id="node14" class="node">
<title>p14</title>
<ellipse fill="none" stroke="black" cx="325.86" cy="-350.6" rx="56.74" ry="18"/>
<text text-anchor="middle" x="325.86" y="-346.4" font-family="Times-Roman" font-size="14.00">assoc:prune</text>
</g>
<!-- p8&#45;&gt;p14 -->
<g id="edge16" class="edge">
<title>p8&#45;&gt;p14</title>
<path fill="none" stroke="black" d="M376.74,-494.32C377.33,-469.39 375.82,-422.12 358.86,-386.6 356.99,-382.7 354.53,-378.95 351.8,-375.44"/>
<polygon fill="black" stroke="black" points="354.28,-372.96 345.06,-367.75 349.02,-377.58 354.28,-372.96"/>
<text text-anchor="middle" x="380.69" y="-435.2" font-family="Times-Roman" font-size="14.00">r2</text>
</g>
<!-- p13&#45;&gt;p14 -->
<g id="edge14" class="edge">
<title>p13&#45;&gt;p14</title>
<path fill="none" stroke="black" d="M224.15,-421.66C244.35,-407.75 273.22,-387.86 295.05,-372.82"/>
<polygon fill="black" stroke="black" points="297.08,-375.67 303.33,-367.12 293.11,-369.91 297.08,-375.67"/>
<text text-anchor="middle" x="302.07" y="-390.8" font-family="Times-Roman" font-size="14.00">outputfile</text>
</g>
<!-- p9 -->
<g id="node10" class="node">
<title>p9</title>
<ellipse fill="black" stroke="black" cx="199.86" cy="-703.8" rx="3.6" ry="3.6"/>
<text text-anchor="middle" x="145.13" y="-711.6" font-family="Times-Roman" font-size="14.00">Channel.fromPath</text>
</g>
<!-- p9&#45;&gt;p10 -->
<g id="edge9" class="edge">
<title>p9&#45;&gt;p10</title>
<path fill="none" stroke="black" d="M199.86,-700.05C199.86,-693.1 199.86,-674.22 199.86,-657.87"/>
<polygon fill="black" stroke="black" points="203.36,-657.64 199.86,-647.64 196.36,-657.64 203.36,-657.64"/>
</g>
<!-- p11 -->
<g id="node12" class="node">
<title>p11</title>
<ellipse fill="none" stroke="black" cx="199.86" cy="-570.9" rx="3.5" ry="3.5"/>
<text text-anchor="middle" x="177.7" y="-578.6" font-family="Times-Roman" font-size="14.00">collect</text>
</g>
<!-- p10&#45;&gt;p11 -->
<g id="edge11" class="edge">
<title>p10&#45;&gt;p11</title>
<path fill="none" stroke="black" d="M199.86,-611.14C199.86,-602.56 199.86,-592.37 199.86,-584.52"/>
<polygon fill="black" stroke="black" points="203.36,-584.46 199.86,-574.46 196.36,-584.46 203.36,-584.46"/>
</g>
<!-- p12 -->
<g id="node13" class="node">
<title>p12</title>
<ellipse fill="none" stroke="black" cx="199.86" cy="-512.4" rx="83.39" ry="18"/>
<text text-anchor="middle" x="199.86" y="-508.2" font-family="Times-Roman" font-size="14.00">assoc:merge_plink</text>
</g>
<!-- p11&#45;&gt;p12 -->
<g id="edge12" class="edge">
<title>p11&#45;&gt;p12</title>
<path fill="none" stroke="black" d="M199.86,-567.17C199.86,-562.23 199.86,-551.3 199.86,-540.57"/>
<polygon fill="black" stroke="black" points="203.36,-540.55 199.86,-530.55 196.36,-540.55 203.36,-540.55"/>
</g>
<!-- p12&#45;&gt;p13 -->
<g id="edge13" class="edge">
<title>p12&#45;&gt;p13</title>
<path fill="none" stroke="black" d="M199.86,-494.21C199.86,-486.19 199.86,-476.45 199.86,-467.47"/>
<polygon fill="black" stroke="black" points="203.36,-467.43 199.86,-457.43 196.36,-467.43 203.36,-467.43"/>
</g>
<!-- p12&#45;&gt;p14 -->
<g id="edge15" class="edge">
<title>p12&#45;&gt;p14</title>
<path fill="none" stroke="black" d="M259.72,-499.82C284.09,-491.98 310.17,-478.95 325.86,-457.4 342.26,-434.86 339.21,-401.87 334.02,-378.73"/>
<polygon fill="black" stroke="black" points="337.37,-377.71 331.54,-368.87 330.58,-379.42 337.37,-377.71"/>
</g>
<!-- p25 -->
<g id="node25" class="node">
<title>p25</title>
<ellipse fill="none" stroke="black" cx="216.86" cy="-58.6" rx="88.02" ry="18"/>
<text text-anchor="middle" x="216.86" y="-54.4" font-family="Times-Roman" font-size="14.00">assoc:regenie_step2</text>
</g>
<!-- p12&#45;&gt;p25 -->
<g id="edge29" class="edge">
<title>p12&#45;&gt;p25</title>
<path fill="none" stroke="black" d="M128.21,-503.01C91.67,-494.3 54.86,-476.56 54.86,-440.4 54.86,-440.4 54.86,-440.4 54.86,-130.6 54.86,-94.66 88.72,-76.74 125.48,-67.88"/>
<polygon fill="black" stroke="black" points="126.36,-71.27 135.38,-65.71 124.86,-64.43 126.36,-71.27"/>
</g>
<!-- p15 -->
<g id="node15" class="node">
<title>p15</title>
<ellipse fill="none" stroke="black" cx="212.86" cy="-277.6" rx="85.07" ry="18"/>
<text text-anchor="middle" x="212.86" y="-273.4" font-family="Times-Roman" font-size="14.00">assoc:generate_pcs</text>
</g>
<!-- p14&#45;&gt;p15 -->
<g id="edge17" class="edge">
<title>p14&#45;&gt;p15</title>
<path fill="none" stroke="black" d="M301.34,-334.19C285.64,-324.33 265.03,-311.38 247.65,-300.46"/>
<polygon fill="black" stroke="black" points="249.23,-297.32 238.9,-294.96 245.51,-303.25 249.23,-297.32"/>
</g>
<!-- p24 -->
<g id="node19" class="node">
<title>p24</title>
<ellipse fill="none" stroke="black" cx="330.86" cy="-131.6" rx="88.02" ry="18"/>
<text text-anchor="middle" x="330.86" y="-127.4" font-family="Times-Roman" font-size="14.00">assoc:regenie_step1</text>
</g>
<!-- p14&#45;&gt;p24 -->
<g id="edge27" class="edge">
<title>p14&#45;&gt;p24</title>
<path fill="none" stroke="black" d="M326.25,-332.57C327.11,-295.11 329.18,-205.28 330.23,-159.86"/>
<polygon fill="black" stroke="black" points="333.73,-159.93 330.46,-149.85 326.73,-159.77 333.73,-159.93"/>
</g>
<!-- p18 -->
<g id="node16" class="node">
<title>p18</title>
<ellipse fill="none" stroke="black" cx="205.86" cy="-204.6" rx="85.65" ry="18"/>
<text text-anchor="middle" x="205.86" y="-200.4" font-family="Times-Roman" font-size="14.00">assoc:make_covars</text>
</g>
<!-- p15&#45;&gt;p18 -->
<g id="edge18" class="edge">
<title>p15&#45;&gt;p18</title>
<path fill="none" stroke="black" d="M211.16,-259.41C210.37,-251.39 209.41,-241.65 208.52,-232.67"/>
<polygon fill="black" stroke="black" points="212,-232.24 207.53,-222.63 205.03,-232.92 212,-232.24"/>
</g>
<!-- p18&#45;&gt;p24 -->
<g id="edge21" class="edge">
<title>p18&#45;&gt;p24</title>
<path fill="none" stroke="black" d="M234.22,-187.49C251.76,-177.53 274.46,-164.63 293.46,-153.84"/>
<polygon fill="black" stroke="black" points="295.2,-156.88 302.17,-148.89 291.75,-150.79 295.2,-156.88"/>
</g>
<!-- p20 -->
<g id="node20" class="node">
<title>p20</title>
<ellipse fill="black" stroke="black" cx="199.86" cy="-131.6" rx="1.8" ry="1.8"/>
</g>
<!-- p18&#45;&gt;p20 -->
<g id="edge22" class="edge">
<title>p18&#45;&gt;p20</title>
<path fill="none" stroke="black" d="M204.4,-186.41C203.27,-173.02 201.74,-154.85 200.77,-143.42"/>
<polygon fill="black" stroke="black" points="204.26,-143.1 199.93,-133.43 197.28,-143.69 204.26,-143.1"/>
</g>
<!-- p19 -->
<g id="node21" class="node">
<title>p19</title>
<ellipse fill="black" stroke="black" cx="222.86" cy="-131.6" rx="1.8" ry="1.8"/>
</g>
<!-- p18&#45;&gt;p19 -->
<g id="edge23" class="edge">
<title>p18&#45;&gt;p19</title>
<path fill="none" stroke="black" d="M209.97,-186.41C213.18,-173.02 217.53,-154.85 220.26,-143.42"/>
<polygon fill="black" stroke="black" points="223.73,-143.97 222.66,-133.43 216.93,-142.34 223.73,-143.97"/>
</g>
<!-- p18&#45;&gt;p25 -->
<g id="edge30" class="edge">
<title>p18&#45;&gt;p25</title>
<path fill="none" stroke="black" d="M198.32,-186.57C191.29,-168.38 182.72,-138.78 188.86,-113.6 191.21,-103.96 195.61,-94.11 200.23,-85.52"/>
<polygon fill="black" stroke="black" points="203.32,-87.17 205.26,-76.75 197.25,-83.69 203.32,-87.17"/>
</g>
<!-- p16 -->
<g id="node17" class="node">
<title>p16</title>
<ellipse fill="black" stroke="black" cx="105.86" cy="-350.6" rx="3.6" ry="3.6"/>
<text text-anchor="middle" x="51.13" y="-358.4" font-family="Times-Roman" font-size="14.00">Channel.fromPath</text>
</g>
<!-- p17 -->
<g id="node18" class="node">
<title>p17</title>
<ellipse fill="none" stroke="black" cx="105.86" cy="-277.6" rx="3.5" ry="3.5"/>
<text text-anchor="middle" x="79.41" y="-285.3" font-family="Times-Roman" font-size="14.00">ifEmpty</text>
</g>
<!-- p16&#45;&gt;p17 -->
<g id="edge19" class="edge">
<title>p16&#45;&gt;p17</title>
<path fill="none" stroke="black" d="M105.86,-346.9C105.86,-337.9 105.86,-308.46 105.86,-291.31"/>
<polygon fill="black" stroke="black" points="109.36,-291.3 105.86,-281.3 102.36,-291.3 109.36,-291.3"/>
</g>
<!-- p17&#45;&gt;p18 -->
<g id="edge20" class="edge">
<title>p17&#45;&gt;p18</title>
<path fill="none" stroke="black" d="M107.45,-273.94C109.68,-270.38 114.01,-263.99 118.86,-259.6 132.83,-246.92 150.18,-235.47 165.7,-226.41"/>
<polygon fill="black" stroke="black" points="167.62,-229.34 174.58,-221.36 164.16,-223.26 167.62,-229.34"/>
</g>
<!-- p24&#45;&gt;p25 -->
<g id="edge28" class="edge">
<title>p24&#45;&gt;p25</title>
<path fill="none" stroke="black" d="M304.7,-114.31C288.92,-104.48 268.61,-91.83 251.5,-81.18"/>
<polygon fill="black" stroke="black" points="253.23,-78.13 242.89,-75.81 249.53,-84.07 253.23,-78.13"/>
</g>
<!-- p21 -->
<g id="node22" class="node">
<title>p21</title>
<ellipse fill="black" stroke="black" cx="468.86" cy="-350.6" rx="3.6" ry="3.6"/>
<text text-anchor="middle" x="516.38" y="-358.4" font-family="Times-Roman" font-size="14.00">Channel.fromPath</text>
</g>
<!-- p22 -->
<g id="node23" class="node">
<title>p22</title>
<ellipse fill="none" stroke="black" cx="468.86" cy="-277.6" rx="3.5" ry="3.5"/>
<text text-anchor="middle" x="442.41" y="-285.3" font-family="Times-Roman" font-size="14.00">ifEmpty</text>
</g>
<!-- p21&#45;&gt;p22 -->
<g id="edge24" class="edge">
<title>p21&#45;&gt;p22</title>
<path fill="none" stroke="black" d="M468.86,-346.9C468.86,-337.9 468.86,-308.46 468.86,-291.31"/>
<polygon fill="black" stroke="black" points="472.36,-291.3 468.86,-281.3 465.36,-291.3 472.36,-291.3"/>
</g>
<!-- p23 -->
<g id="node24" class="node">
<title>p23</title>
<ellipse fill="none" stroke="black" cx="468.86" cy="-204.6" rx="114.59" ry="18"/>
<text text-anchor="middle" x="468.86" y="-200.4" font-family="Times-Roman" font-size="14.00">assoc:phenofile_from_fam</text>
</g>
<!-- p22&#45;&gt;p23 -->
<g id="edge25" class="edge">
<title>p22&#45;&gt;p23</title>
<path fill="none" stroke="black" d="M468.86,-273.9C468.86,-267.13 468.86,-248.8 468.86,-232.83"/>
<polygon fill="black" stroke="black" points="472.36,-232.82 468.86,-222.82 465.36,-232.82 472.36,-232.82"/>
</g>
<!-- p23&#45;&gt;p24 -->
<g id="edge26" class="edge">
<title>p23&#45;&gt;p24</title>
<path fill="none" stroke="black" d="M436.85,-187.13C417.15,-177 391.74,-163.93 370.74,-153.12"/>
<polygon fill="black" stroke="black" points="372.23,-149.95 361.74,-148.49 369.03,-156.18 372.23,-149.95"/>
</g>
<!-- p23&#45;&gt;p25 -->
<g id="edge31" class="edge">
<title>p23&#45;&gt;p25</title>
<path fill="none" stroke="black" d="M465.66,-186.3C460.97,-165.88 450.24,-132.34 427.86,-113.6 395.31,-86.36 350.75,-72.62 310.96,-65.79"/>
<polygon fill="black" stroke="black" points="311.38,-62.31 300.95,-64.2 310.28,-69.23 311.38,-62.31"/>
<text text-anchor="middle" x="479.29" y="-127.4" font-family="Times-Roman" font-size="14.00">phenofile</text>
</g>
<!-- p26 -->
<g id="node26" class="node">
<title>p26</title>
<ellipse fill="black" stroke="black" cx="216.86" cy="-1.8" rx="1.8" ry="1.8"/>
</g>
<!-- p25&#45;&gt;p26 -->
<g id="edge32" class="edge">
<title>p25&#45;&gt;p26</title>
<path fill="none" stroke="black" d="M216.86,-40.56C216.86,-31.87 216.86,-21.56 216.86,-13.9"/>
<polygon fill="black" stroke="black" points="220.36,-13.76 216.86,-3.76 213.36,-13.76 220.36,-13.76"/>
</g>
</g>
</svg>
